<svg xmlns="http://www.w3.org/2000/svg" xmlns:xlink="http://www.w3.org/1999/xlink" viewBox="0 0 1500 970"><defs><style>.a{fill:#238ecd;}.b{fill:url(#a);}.c{fill:#232b62;}.d{fill:url(#b);}</style><linearGradient id="a" x1="15595.73502" y1="1156.60403" x2="15595.73502" y2="1739.95193" gradientTransform="translate(16773.7187 1758.83971) rotate(180)" gradientUnits="userSpaceOnUse"><stop offset="0" stop-color="#034ea2"/><stop offset="1" stop-color="#00aeef"/></linearGradient><linearGradient id="b" x1="322.01615" y1="90.80938" x2="322.01615" y2="675.69272" gradientTransform="matrix(1, 0, 0, 1, 0, 0)" xlink:href="#a"/></defs><title>xwards</title><path class="a" d="M190.1213,504.51454c-86.79374-86.80754-86.79374-227.52754,0-314.33508,86.80779-86.79369,227.52749-86.79369,314.33529,0l88.40534-88.405c-135.62245-135.62195-355.52352-135.62195-491.14547,0s-135.622,355.52326,0,491.14521,355.523,135.62195,491.14547,0l-88.40534-88.40509C417.6488,591.308,276.9291,591.308,190.1213,504.51454Z"/><path class="a" d="M995.54335,504.45658l-88.40509,88.40509c135.62245,135.62195,355.52327,135.62195,491.14547,0,135.6217-135.62195,135.6217-355.52326,0-491.14521-135.6222-135.62195-355.523-135.62195-491.14547,0l88.40509,88.40509c86.80779-86.79374,227.52775-86.79374,314.33554,0,86.79349,86.80754,86.79349,227.52749,0,314.335C1223.07109,591.25,1082.35114,591.25,995.54335,504.45658Z"/><path class="b" d="M907.13826,101.71646c296.43081-207.34324,536.02459,17.15576,541.58126,207.95471,5.82865,200.14762-221.82831,426.13327-453.17617,194.78541,86.9606,84.77943,228.20872,86.05732,314.33554-.0557,86.79349-86.80729,86.79349-227.52749,0-314.335-86.80779-86.79349-227.52775-86.79349-314.33554,0Z"/><polygon class="c" points="995.546 504.459 995.546 592.864 907.141 592.864 504.457 190.179 504.457 101.774 592.862 101.774 995.546 504.459"/><path class="d" d="M592.86193,592.86392C296.43087,800.20741,56.83734,575.70816,51.28092,384.90947,45.452,184.76185,271.06657-43.18246,502.41443,188.1652c-86.9606-84.77943-226.1663-84.09871-312.29313,2.01426-86.79374,86.80754-86.79374,227.52754,0,314.33508,86.80779,86.79349,227.52749,86.79349,314.33529,0Z"/><polygon class="c" points="653.762 355.196 742.153 443.587 592.862 592.864 504.457 592.864 504.457 504.515 653.762 355.196"/><polygon class="c" points="995.574 101.774 995.574 190.152 846.269 339.457 757.878 251.065 907.141 101.774 995.574 101.774"/><path class="c" d="M175.63746,962.84026l80.82373-125.064L178.01978,721.56l65.16943,0.16992,48.83447,71.125,47.98389-71.125,68.0625-.34033L325.71461,836.92522l81.84473,126.08545-65.67969-.17041-51.2168-77.76074-53.76953,77.76074H175.63746Z"/><path class="c" d="M497.742,894.09758V788.601h54.62012V894.09758q1.35938,23.99194,20.58838,24.67285h3.063q20.75757-.67822,20.75879-28.75635V788.601h54.4502V890.01409q0,74.01709-75.209,78.10107h-3.063q-29.94946-1.70288-47.9834-14.293-17.8667,12.594-47.814,14.293h-3.063q-75.20947-4.08325-75.2085-78.10107V788.601h54.44971V890.01409q0,28.0752,20.75879,28.75635h3.063Q496.37916,918.09221,497.742,894.09758Z"/><path class="c" d="M805.38307,957.56584q-5.44775,2.38477-7.99707,3.23291a105.96715,105.96715,0,0,1-86.94971-5.105,96.64381,96.64381,0,0,1-36.75342-33.3501,89.91283,89.91283,0,0,1-5.78564-84.90771,92.49512,92.49512,0,0,1,21.9502-29.60693,95.24792,95.24792,0,0,1,31.98926-19.228,104.708,104.708,0,0,1,37.77441-6.97607,107.97911,107.97911,0,0,1,37.7749,6.80615A95.30993,95.30993,0,0,1,829.37525,807.829,92.98859,92.98859,0,0,1,851.49537,837.436a86.85157,86.85157,0,0,1,7.99707,37.09375l-0.16992,88.65088-53.93945-.51025v-5.10449ZM720.47535,852.57952a40.52194,40.52194,0,0,0-6.29541,21.9502q0,18.03809,13.6123,31.13867a45.82136,45.82136,0,0,0,63.80811,0q13.61133-13.10083,13.61279-31.13867a40.54326,40.54326,0,0,0-6.2959-21.9502A46.57482,46.57482,0,0,0,782.072,836.58489a46.16333,46.16333,0,0,0-44.751,0A46.53371,46.53371,0,0,0,720.47535,852.57952Z"/><path class="c" d="M957.33228,833.86272a21.28147,21.28147,0,0,0-11.06055-3.23291h-3.0625q-20.7627.85327-20.75928,28.92627V962.67034H868.00025V859.55608q0-74.35693,75.209-78.10156h3.0625a89.39806,89.39806,0,0,1,11.06055,1.021v51.38721Z"/><path class="c" d="M1165.43287,875.891a85.05488,85.05488,0,0,1-13.7832,46.793,94.89374,94.89374,0,0,1-36.75293,33.3501,105.2161,105.2161,0,0,1-86.9502,5.2749,97.244,97.244,0,0,1-32.15918-19.56787,94.23964,94.23964,0,0,1-22.12012-29.94727,90.5085,90.5085,0,0,1,.16992-74.01758,91.05016,91.05016,0,0,1,21.9502-29.77734,98.86519,98.86519,0,0,1,32.15918-19.56787,110.34334,110.34334,0,0,1,75.37891,0l3.91406,1.70166,3.91309,1.70166V720.02873l54.28027,0.16992V875.891Zm-54.28027-1.19092a39.69181,39.69181,0,0,0-6.2959-21.78027,46.56565,46.56565,0,0,0-16.84473-15.99463,44.07382,44.07382,0,0,0-22.291-5.95508,44.9846,44.9846,0,0,0-22.46,5.95508,46.52985,46.52985,0,0,0-16.8457,15.99463,39.67564,39.67564,0,0,0-6.2959,21.78027q0,18.20874,13.6123,31.30859a45.39649,45.39649,0,0,0,63.80859,0Q1111.15162,892.90788,1111.1526,874.70012Z"/><path class="c" d="M1201.50611,907.8803q16.16309,16.16748,39.47559,16.16455,24.33105,0,24.332-14.293,0-7.48535-13.44141-11.06006-9.53174-2.209-30.28809-7.65674a60.0142,60.0142,0,0,1-28.416-16.335q-11.40234-11.74072-11.40039-36.07324,0-18.71558,9.3584-31.64893a56.2038,56.2038,0,0,1,24.67285-19.05713,89.08551,89.08551,0,0,1,33.86035-6.2959,80.79716,80.79716,0,0,1,21.09961,2.89258,102.18656,102.18656,0,0,1,20.75879,8.84814,94.999,94.999,0,0,1,17.69629,12.59131l-29.94727,29.77734a46.51714,46.51714,0,0,0-28.58594-9.86914q-18.54785,0-18.54687,10.37939,0,9.36035,13.78223,13.10205,15.14209,4.084,30.458,7.65723a58.67618,58.67618,0,0,1,28.07617,15.6543q11.39648,11.573,11.40039,36.41309,0,18.54858-9.86914,31.98926a58.9222,58.9222,0,0,1-26.374,20.24854,87.03509,87.03509,0,0,1-34.20215,6.97656,136.80334,136.80334,0,0,1-26.71387-2.38232,81.907,81.907,0,0,1-22.29-7.48682,141.54464,141.54464,0,0,1-22.46094-14.123Z"/></svg>