<svg xmlns="http://www.w3.org/2000/svg" viewBox="0 0 1144 249"><defs><style>.a{fill:#232b62;}</style></defs><title>x</title><path class="a" d="M2.76563,243.052L83.58984,117.988,5.14844,1.77173,70.31738,1.94165l48.835,71.125,47.9834-71.125,68.0625-.34033L152.84277,117.137,234.6875,243.22241l-65.67969-.17041L117.791,165.29126,64.02148,243.052H2.76563Z"/><path class="a" d="M324.87012,174.30933V68.81274h54.62012V174.30933q1.35938,23.99194,20.58789,24.67285h3.06348q20.7583-.67822,20.75879-28.75635V68.81274h54.4502V170.22583q0,74.01709-75.209,78.10107h-3.06348q-29.94873-1.70288-47.98242-14.293-17.86816,12.594-47.81445,14.293h-3.0625q-75.21094-4.08325-75.209-78.10107V68.81274H280.459V170.22583q0,28.0752,20.75977,28.75635h3.0625Q323.50732,198.304,324.87012,174.30933Z"/><path class="a" d="M632.51172,237.77759q-5.44922,2.38477-7.998,3.23291a105.966,105.966,0,0,1-86.94922-5.105,96.65237,96.65237,0,0,1-36.75391-33.3501,86.56351,86.56351,0,0,1-13.78223-47.814,86.81544,86.81544,0,0,1,7.99707-37.09375,92.49512,92.49512,0,0,1,21.9502-29.60693,95.24792,95.24792,0,0,1,31.98926-19.228,104.70611,104.70611,0,0,1,37.77441-6.97607,107.97243,107.97243,0,0,1,37.77441,6.80615,95.31432,95.31432,0,0,1,31.99023,19.39795A92.99268,92.99268,0,0,1,678.623,117.64771a86.845,86.845,0,0,1,7.998,37.09375l-0.16992,88.65088-53.93945-.51025v-5.10449Zm-84.9082-104.98633a40.52565,40.52565,0,0,0-6.29492,21.9502q0,18.03809,13.61133,31.13867a45.822,45.822,0,0,0,63.80859,0q13.61133-13.10083,13.61328-31.13867a40.54418,40.54418,0,0,0-6.29687-21.9502,46.56565,46.56565,0,0,0-16.84473-15.99463,46.16333,46.16333,0,0,0-44.751,0A46.52984,46.52984,0,0,0,547.60352,132.79126Z"/><path class="a" d="M784.46094,114.07446a21.28717,21.28717,0,0,0-11.06055-3.23291h-3.0625q-20.7627.85327-20.75977,28.92627V242.88208H695.12891V139.76782q0-74.35693,75.209-78.10156h3.0625a89.433,89.433,0,0,1,11.06055,1.021v51.38721Z"/><path class="a" d="M992.56055,156.10278a85.04688,85.04688,0,0,1-13.7832,46.793,94.89779,94.89779,0,0,1-36.752,33.3501,105.21834,105.21834,0,0,1-86.95117,5.2749,97.23983,97.23983,0,0,1-32.1582-19.56787,94.22809,94.22809,0,0,1-22.12109-29.94727,86.934,86.934,0,0,1-7.82617-37.09375,86.43811,86.43811,0,0,1,7.99609-36.92383A91.03921,91.03921,0,0,1,822.916,88.21069a98.86089,98.86089,0,0,1,32.1582-19.56787,110.34333,110.34333,0,0,1,75.37891,0l3.91406,1.70166,3.91406,1.70166V0.24048l54.2793,0.16992V156.10278Zm-54.2793-1.19092a39.6846,39.6846,0,0,0-6.29687-21.78027A46.57054,46.57054,0,0,0,915.14063,117.137a44.07643,44.07643,0,0,0-22.291-5.95508,44.99083,44.99083,0,0,0-22.46094,5.95508,46.52984,46.52984,0,0,0-16.8457,15.99463,39.68284,39.68284,0,0,0-6.29492,21.78027q0,18.20874,13.61133,31.30859a45.39649,45.39649,0,0,0,63.80859,0Q938.2793,173.11963,938.28125,154.91187Z"/><path class="a" d="M1028.63477,188.092q16.16308,16.16748,39.47461,16.16455,24.33105,0,24.332-14.293,0-7.48535-13.44141-11.06006-9.53027-2.209-30.28711-7.65674a60.0142,60.0142,0,0,1-28.416-16.335q-11.40234-11.74072-11.40039-36.07324,0-18.71558,9.35742-31.64893a56.20657,56.20657,0,0,1,24.67383-19.05713,89.08048,89.08048,0,0,1,33.85938-6.2959,80.79717,80.79717,0,0,1,21.09961,2.89258,102.19575,102.19575,0,0,1,20.75977,8.84814A94.99094,94.99094,0,0,1,1136.3418,86.1687L1106.39453,115.946a46.51509,46.51509,0,0,0-28.58594-9.86914q-18.54785,0-18.54687,10.37939,0,9.36035,13.7832,13.10205,15.14063,4.084,30.457,7.65723a58.67164,58.67164,0,0,1,28.07617,15.6543q11.39648,11.573,11.40039,36.41309,0,18.54858-9.86914,31.98926a58.9247,58.9247,0,0,1-26.373,20.24854,87.04332,87.04332,0,0,1-34.20312,6.97656,136.793,136.793,0,0,1-26.71289-2.38232,81.91356,81.91356,0,0,1-22.291-7.48682,141.58854,141.58854,0,0,1-22.46094-14.123Z"/></svg>