<svg xmlns="http://www.w3.org/2000/svg" xmlns:xlink="http://www.w3.org/1999/xlink" viewBox="0 0 1500 694.63609"><defs><style>.a{fill:#238ecd;}.b{fill:url(#a);}.c{fill:#232b62;}.d{fill:url(#b);}</style><linearGradient id="a" x1="6319.10827" y1="1172.32659" x2="6319.10827" y2="1755.67449" gradientTransform="translate(7497.09195 1774.56227) rotate(180)" gradientUnits="userSpaceOnUse"><stop offset="0" stop-color="#034ea2"/><stop offset="1" stop-color="#00aeef"/></linearGradient><linearGradient id="b" x1="322.01615" y1="90.80938" x2="322.01615" y2="675.69272" gradientTransform="matrix(1, 0, 0, 1, 0, 0)" xlink:href="#a"/></defs><title>xwards_NEW</title><path class="a" d="M190.1213,504.51454c-86.79374-86.80754-86.79374-227.52754,0-314.33508,86.80779-86.79369,227.52749-86.79369,314.33529,0l88.40534-88.405c-135.62245-135.62195-355.52352-135.62195-491.14547,0s-135.622,355.52326,0,491.14521,355.523,135.62195,491.14547,0l-88.40534-88.40509C417.6488,591.308,276.9291,591.308,190.1213,504.51454Z"/><path class="a" d="M995.54335,504.45658l-88.40509,88.40509c135.62245,135.62195,355.52327,135.62195,491.14547,0,135.6217-135.62195,135.6217-355.52326,0-491.14521-135.6222-135.62195-355.523-135.62195-491.14547,0l88.40509,88.40509c86.80779-86.79374,227.52775-86.79374,314.33554,0,86.79349,86.80754,86.79349,227.52749,0,314.335C1223.07109,591.25,1082.35114,591.25,995.54335,504.45658Z"/><path class="b" d="M907.13826,101.71646c296.43081-207.34324,536.02459,17.15576,541.58126,207.95471,5.82865,200.14762-221.82831,426.13327-453.17617,194.78541,86.9606,84.77943,228.20872,86.05732,314.33554-.0557,86.79349-86.80729,86.79349-227.52749,0-314.335-86.80779-86.79349-227.52775-86.79349-314.33554,0Z"/><polygon class="c" points="995.546 504.459 995.546 592.864 907.141 592.864 504.457 190.179 504.457 101.774 592.862 101.774 995.546 504.459"/><path class="d" d="M592.86193,592.86392C296.43087,800.20741,56.83734,575.70816,51.28092,384.90947,45.452,184.76185,271.06657-43.18246,502.41443,188.1652c-86.9606-84.77943-226.1663-84.09871-312.29313,2.01426-86.79374,86.80754-86.79374,227.52754,0,314.33508,86.80779,86.79349,227.52749,86.79349,314.33529,0Z"/><polygon class="c" points="653.762 355.196 742.153 443.587 592.862 592.864 504.457 592.864 504.457 504.515 653.762 355.196"/><polygon class="c" points="995.574 101.774 995.574 190.152 846.269 339.457 757.878 251.065 907.141 101.774 995.574 101.774"/></svg>